<svg width="165" height="80" viewBox="0 0 165 80" fill="none" xmlns="http://www.w3.org/2000/svg">
<path d="M84.6686 42.6452C87.0046 42.6453 88.8851 44.6023 88.8851 47.0333C88.8851 49.4643 87.0046 51.4213 84.6686 51.4214C82.3326 51.4214 80.4518 49.4643 80.4518 47.0333C80.4518 44.6023 82.3326 42.6452 84.6686 42.6452Z" fill="white"/>
<path fill-rule="evenodd" clip-rule="evenodd" d="M83.8998 36.9123C86.3936 36.9123 88.5483 37.8728 90.2108 39.9558V37.4252H95.0436V56.6421H90.2108V54.1115C88.5483 56.1945 86.3936 57.1543 83.8998 57.1544C78.8534 57.1544 74.6673 52.6389 74.6673 47.0333C74.6673 41.4292 78.8534 36.9123 83.8998 36.9123ZM84.6686 41.365C81.6512 41.365 79.2212 43.8933 79.2212 47.0333C79.2212 50.174 81.6512 52.7023 84.6686 52.7023C87.6867 52.7022 90.1164 50.174 90.1164 47.0333C90.1164 43.8933 87.6867 41.3651 84.6686 41.365Z" fill="white"/>
<path d="M68.94 36.9123C71.2177 36.9123 73.5879 38.3533 73.5879 42.6777V56.6421H68.5102V44.5352C68.5102 42.9343 67.8643 42.2931 66.8789 42.2931C66.0179 42.2931 65.0325 42.8695 62.8166 44.6635V56.6421H57.7389V44.5352C57.7388 42.9343 57.0915 42.2931 56.1076 42.2931C55.2763 42.2931 54.2608 42.8696 52.0449 44.6954V56.6414H46.9658V37.4252H51.7366V39.8275C54.2609 37.81 56.2304 36.9123 58.1693 36.9123C59.8005 36.9123 61.6164 37.6486 62.4455 39.7957C65.0309 37.7458 67.0011 36.9123 68.94 36.9123Z" fill="white"/>
<path d="M102.06 37.4252C103.538 39.8598 105.169 41.9097 107.016 43.9271C108.832 41.909 110.464 39.8591 111.971 37.4252H118.034C115.91 40.7244 113.571 43.8629 110.832 46.9057C113.602 50.0759 115.91 53.2794 118.034 56.6421H111.848C110.4 54.2075 108.862 51.9976 107.016 49.916C105.146 51.984 103.486 54.2374 102.06 56.6421H95.9351C98.0282 53.376 100.399 50.0759 103.169 46.9057C100.399 43.8629 98.0282 40.8195 95.9351 37.4252H102.06Z" fill="white"/>
<path d="M90.1017 26.5768C91.3972 26.5768 92.4927 27.6405 92.4927 28.9874C92.4927 30.3343 91.3972 31.4118 90.1017 31.4118C88.7656 31.4118 87.697 30.3343 87.697 28.9874C87.697 27.6405 88.7655 26.5768 90.1017 26.5768Z" fill="white"/>
<path fill-rule="evenodd" clip-rule="evenodd" d="M90.1017 22.8457C93.4417 22.8457 96.1667 25.5257 96.1667 28.9874C96.1667 32.3946 93.4417 35.1968 90.1017 35.1968C86.7218 35.1968 85.0646 32.7184 84.5969 31.7351C84.5968 33.324 83.1142 35.1421 81.0036 35.1422H75.8198V23.0471H81.3907C83.1141 23.0471 84.5969 24.839 84.5969 26.3342C85.0112 25.3243 86.7218 22.8457 90.1017 22.8457ZM78.9329 30.2804V32.3275H80.5892C81.0697 32.3275 81.4578 31.8567 81.4578 31.2902C81.4577 30.7517 81.0697 30.2804 80.5892 30.2804H78.9329ZM90.1017 25.9164C88.4182 25.9164 87.0556 27.2901 87.0556 28.9874C87.0557 30.698 88.4182 32.0715 90.1017 32.0715C91.7845 32.0715 93.1477 30.698 93.1477 28.9874C93.1477 27.2901 91.7845 25.9164 90.1017 25.9164ZM84.036 28.2466C83.7954 28.5166 83.1677 28.9608 82.7804 28.9874C83.1677 29.0546 83.7691 29.5259 84.036 29.9168C83.9427 29.5937 83.9427 28.5697 84.036 28.2466ZM78.9329 25.7418V27.7615H80.5892C81.0697 27.7615 81.4577 27.2901 81.4578 26.7517C81.4578 26.2132 81.0697 25.7418 80.5892 25.7418H78.9329Z" fill="white"/>
<path d="M69.7812 23.0484V27.5608H71.8919V23.0484H75.1515V35.1422H71.8919V30.4553H69.7812V35.1422H66.4412V23.0477L69.7812 23.0484Z" fill="white"/>
</svg>
