<svg width="165" height="80" viewBox="0 0 165 80" fill="none" xmlns="http://www.w3.org/2000/svg">
<path fill-rule="evenodd" clip-rule="evenodd" d="M17.9746 33.159H27.4371C30.1295 33.159 32.312 35.1222 32.312 37.544C32.312 39.966 30.1295 41.9293 27.4371 41.9293H27.1505V42.7031C27.1505 44.9826 25.0964 46.8303 22.5626 46.8303C20.0288 46.8303 17.9746 44.9826 17.9746 42.7031V33.159ZM24.5105 39.5544H27.4373C28.6697 39.5544 29.6721 38.6526 29.6721 37.544C29.6721 36.4357 28.6697 35.5338 27.4373 35.5338H20.6148V42.7032C20.6148 43.6695 21.4886 44.4555 22.5626 44.4555C23.6368 44.4555 24.5105 43.6695 24.5105 42.7032V39.5544Z" fill="white"/>
<path fill-rule="evenodd" clip-rule="evenodd" d="M65.2905 33.1607C64.6051 33.1607 64.3125 33.5139 64.0985 33.8956L64.0965 33.8989L60.6529 39.4137L56.9918 33.8053C56.614 33.2276 56.1833 33.1607 55.8922 33.1607C55.1284 33.1607 54.5133 33.7891 54.5133 34.3095C54.5133 34.556 54.5979 34.8134 54.7515 35.0338L59.3045 41.9393V45.6189C59.3045 46.3728 59.8172 46.841 60.6427 46.841C61.4679 46.841 61.9806 46.3728 61.9806 45.6189V41.9361L61.9932 41.9167L66.3094 35.1985C66.4858 34.9263 66.649 34.6303 66.649 34.3095C66.649 33.7298 65.9761 33.1607 65.2905 33.1607ZM49.8596 33.1607C50.5206 33.1607 50.9762 33.4292 51.2512 33.9788L56.3172 45.122C56.3763 45.2547 56.4394 45.4644 56.4394 45.6557C56.4394 46.3093 55.8025 46.841 55.0198 46.841C54.6434 46.841 54.1317 46.7107 53.83 46.0908L52.9612 44.0825H46.682L45.8154 46.0556C45.5771 46.5914 45.1965 46.841 44.6178 46.841C43.8561 46.841 43.2595 46.3527 43.2595 45.7295C43.2595 45.4885 43.3282 45.3113 43.3737 45.1945L48.4807 33.9953C48.7231 33.4494 49.1999 33.1607 49.8596 33.1607ZM49.8452 36.8792L47.6393 41.9025H52.0182L49.8452 36.8792ZM40.4325 44.5742H36.4029V34.3373C36.4029 33.5883 35.9182 33.159 35.0727 33.159C34.2274 33.159 33.7425 33.5883 33.7425 34.3373V46.8203H40.4325C41.2518 46.8203 41.7218 46.4111 41.7218 45.6975C41.7218 44.9837 41.2518 44.5742 40.4325 44.5742Z" fill="white"/>
<path fill-rule="evenodd" clip-rule="evenodd" d="M146.277 34.8791C145.839 34.2944 145.222 33.8384 144.442 33.5239C143.668 33.2115 142.771 33.0531 141.777 33.0531C140.755 33.0531 139.805 33.2175 138.954 33.5421C138.099 33.8677 137.39 34.3406 136.846 34.9477C136.3 35.5568 135.964 36.2767 135.848 37.0876C135.819 37.3214 135.804 37.4935 135.804 37.6012C135.804 38.3281 136.025 38.9523 136.46 39.4569C136.889 39.9538 137.409 40.3515 138.005 40.6391C138.591 40.9222 139.293 41.1957 140.091 41.4518L140.583 41.6056C141.351 41.8573 141.888 42.0696 142.176 42.2361C142.437 42.3872 142.564 42.5902 142.564 42.8571C142.564 43.1592 142.42 43.4294 142.124 43.6836C141.831 43.9358 141.37 44.0637 140.753 44.0637C140.02 44.0637 139.449 43.9147 139.056 43.6208C138.745 43.3882 138.58 43.1336 138.553 42.8422C138.536 42.6582 138.374 42.521 138.176 42.521C138.161 42.521 138.145 42.5219 138.129 42.5237L138.116 42.5252L135.21 42.856C135.021 42.8774 134.878 43.0166 134.869 43.1868C134.867 43.2293 134.866 43.2666 134.866 43.2982C134.866 44.4436 135.345 45.362 136.291 46.0278C137.227 46.6872 138.52 47.0214 140.135 47.0214C141.805 47.0214 143.212 46.649 144.317 45.9148C145.429 45.1761 146.082 44.1586 146.256 42.8906C146.286 42.6515 146.3 42.484 146.3 42.3776C146.3 41.6372 146.078 41.0215 145.641 40.5477C145.211 40.0827 144.744 39.74 144.253 39.5289C143.774 39.3234 143.092 39.0767 142.226 38.7955C141.465 38.5422 140.894 38.3398 140.529 38.1943C140.175 38.054 139.909 37.9041 139.737 37.7488C139.576 37.6042 139.497 37.4367 139.497 37.2366C139.497 36.8497 139.648 36.5569 139.958 36.3414C140.275 36.1221 140.714 36.0109 141.265 36.0109C141.936 36.0109 142.454 36.1734 142.804 36.4938C143.088 36.7546 143.236 37.0368 143.255 37.3568C143.266 37.5408 143.437 37.6849 143.643 37.6849C143.659 37.6849 143.676 37.6839 143.692 37.682L146.596 37.3518C146.784 37.3303 146.927 37.1911 146.936 37.0211C146.938 36.9791 146.939 36.942 146.939 36.9107C146.939 36.1488 146.717 35.4652 146.277 34.8791Z" fill="#00E650"/>
<path fill-rule="evenodd" clip-rule="evenodd" d="M135.299 36.0875C135.381 36.0223 135.426 35.9386 135.428 35.8445L135.747 33.572C135.767 33.4747 135.742 33.3858 135.675 33.3148C135.607 33.2439 135.514 33.2066 135.405 33.2066H124.636C124.531 33.2066 124.437 33.2416 124.363 33.308C124.295 33.3695 124.25 33.4446 124.232 33.5311L124.231 33.5356L124.23 33.5401L123.932 35.8184C123.912 35.9158 123.937 36.0047 124.005 36.0757C124.071 36.1462 124.165 36.1835 124.274 36.1835H127.722L126.32 46.5026C126.3 46.6002 126.325 46.689 126.393 46.7601C126.46 46.8304 126.553 46.8679 126.662 46.8679H129.605C129.71 46.8679 129.804 46.8329 129.878 46.7665C129.946 46.7054 129.99 46.6307 130.01 46.544L130.011 46.5396L131.418 36.1835H135.021C135.125 36.1835 135.218 36.1512 135.299 36.0875Z" fill="#00E650"/>
<path fill-rule="evenodd" clip-rule="evenodd" d="M112.842 33.2066H118.984C120.264 33.2066 121.292 33.5406 122.039 34.1992C122.786 34.8586 123.165 35.7579 123.165 36.8722C123.165 37.0037 123.151 37.208 123.121 37.5017C122.991 38.3753 122.645 39.1428 122.093 39.7829C121.543 40.4212 120.825 40.8906 119.963 41.1772L121.962 46.4387C121.982 46.4792 121.992 46.5262 121.992 46.5784C121.992 46.6463 121.965 46.8679 121.606 46.8679H118.515C118.317 46.8679 118.174 46.7783 118.113 46.6125L116.39 41.5221C116.387 41.5181 116.384 41.5163 116.382 41.5162H115.039L114.357 46.5349L114.357 46.5396L114.356 46.544C114.336 46.6307 114.292 46.7054 114.224 46.7665C114.151 46.8329 114.056 46.8679 113.951 46.8679H111.008C110.899 46.8679 110.806 46.8304 110.739 46.7601C110.671 46.689 110.646 46.6 110.667 46.5025L112.435 33.5459C112.438 33.4516 112.482 33.3679 112.565 33.3028C112.646 33.239 112.739 33.2066 112.842 33.2066ZM117.661 38.8462C118.186 38.8462 118.607 38.7059 118.948 38.4175C119.286 38.1312 119.451 37.7637 119.451 37.2942C119.451 36.9421 119.329 36.6726 119.078 36.4701C118.826 36.2672 118.479 36.1644 118.045 36.1644H115.764L115.407 38.8462H117.661Z" fill="#00E650"/>
<path fill-rule="evenodd" clip-rule="evenodd" d="M101.933 32.3418C97.2313 32.3418 93.4196 35.7706 93.4196 40C93.4196 44.2296 97.2313 47.6582 101.933 47.6582C106.635 47.6582 110.446 44.2296 110.446 40C110.446 35.7706 106.635 32.3418 101.933 32.3418Z" fill="#00E650"/>
<path fill-rule="evenodd" clip-rule="evenodd" d="M82.5344 33.2066H88.5051C89.8273 33.2066 90.8942 33.5467 91.6762 34.2172C92.4598 34.8894 92.8574 35.8086 92.8574 36.949C92.8574 37.0799 92.8432 37.2965 92.8137 37.6155C92.6977 38.4621 92.3816 39.222 91.8743 39.8742C91.366 40.5272 90.7 41.037 89.8946 41.3892C89.0916 41.7407 88.1792 41.919 87.183 41.919H84.6725L84.6723 41.9192C84.6707 41.9213 84.6683 41.9245 84.6656 41.9292L84.0496 46.5348L84.049 46.5394L84.048 46.544C84.0285 46.6306 83.9844 46.7054 83.9166 46.7665C83.8426 46.8329 83.7482 46.8679 83.6433 46.8679H80.7004C80.5912 46.8679 80.498 46.8304 80.4312 46.76C80.3634 46.6888 80.3383 46.6 80.3589 46.5025L82.1281 33.5395L82.1287 33.5354L82.1296 33.5311C82.1487 33.4446 82.1929 33.3695 82.2612 33.308C82.3348 33.2416 82.4293 33.2066 82.5344 33.2066ZM87.1405 39.153C87.7281 39.153 88.2142 38.9898 88.5855 38.6679C88.9605 38.3424 89.1429 37.9309 89.1429 37.4094C89.1429 37.0312 89.0068 36.7364 88.7271 36.5082C88.4472 36.28 88.0641 36.1644 87.5882 36.1644H85.4615C85.4597 36.1664 85.4573 36.1698 85.4547 36.1748L85.0565 39.153H87.1405Z" fill="#00E650"/>
<path fill-rule="evenodd" clip-rule="evenodd" d="M80.4297 36.9107C80.4297 36.1488 80.2069 35.4652 79.7676 34.8791C79.3292 34.2944 78.7118 33.8384 77.9325 33.5239C77.1585 33.2115 76.2618 33.0531 75.267 33.0531C74.2454 33.0531 73.2957 33.2175 72.4443 33.5421C71.5895 33.8677 70.8802 34.3406 70.336 34.9477C69.7899 35.5568 69.4542 36.2767 69.338 37.0876C69.3089 37.3214 69.2942 37.4935 69.2942 37.6012C69.2942 38.3281 69.515 38.9523 69.9506 39.4569C70.3791 39.9538 70.8988 40.3515 71.4953 40.6391C72.0814 40.9222 72.7833 41.1957 73.5813 41.4518L74.0729 41.6056C74.8414 41.8573 75.378 42.0696 75.6659 42.2361C75.927 42.3872 76.054 42.5902 76.054 42.8571C76.054 43.1592 75.9102 43.4294 75.6145 43.6836C75.3213 43.9358 74.8601 44.0637 74.2435 44.0637C73.5102 44.0637 72.9391 43.9147 72.5461 43.6208C72.2347 43.3882 72.0702 43.1336 72.0429 42.8422C72.0262 42.6582 71.8645 42.521 71.6667 42.521C71.6511 42.521 71.6353 42.5219 71.6194 42.5237L71.6063 42.5252L68.7 42.856C68.5112 42.8774 68.368 43.0166 68.3593 43.1868C68.357 43.2293 68.3561 43.2666 68.3561 43.2982C68.3561 44.4436 68.8355 45.362 69.7813 46.0278C70.7172 46.6872 72.0104 47.0214 73.6251 47.0214C75.2951 47.0214 76.7021 46.649 77.8073 45.9148C78.9194 45.1761 79.5719 44.1586 79.7463 42.8906C79.7757 42.6515 79.79 42.484 79.79 42.3776C79.79 41.6372 79.5682 41.0215 79.1308 40.5477C78.7012 40.0827 78.2343 39.74 77.7435 39.5289C77.2644 39.3234 76.5824 39.0767 75.7164 38.7955C74.9556 38.5422 74.3842 38.3398 74.0189 38.1943C73.6657 38.054 73.3991 37.9041 73.2267 37.7488C73.0657 37.6042 72.9874 37.4367 72.9874 37.2366C72.9874 36.8497 73.1383 36.5569 73.4486 36.3414C73.7651 36.1221 74.2046 36.0109 74.7553 36.0109C75.4265 36.0109 75.9442 36.1734 76.2937 36.4938C76.5781 36.7546 76.7258 37.0368 76.7453 37.3568C76.7564 37.5408 76.9269 37.6849 77.1331 37.6849C77.1494 37.6849 77.166 37.6839 77.1825 37.682L80.0856 37.3518C80.2742 37.3303 80.4177 37.1911 80.4263 37.0211C80.4285 36.9791 80.4297 36.942 80.4297 36.9107Z" fill="#00E650"/>
</svg>
